# xmcd
#
# Track frame offsets: 
#        150
#        15955
#        34480
#        49955
#        64985
#        79150
#        92943
#        106563
#        117165
#        127035
#        144130
#        156178
#
# Disc length: 2283 seconds
#
# Revision: 0
# Processed by: cddbd v1.4PL0 Copyright (c) Steve Scherf et al.
# Submitted via: ExactAudioCopy v0.90b4
#
DISCID=9a08e90c
DTITLE=Big Joe Williams - At Folk City
DYEAR=1962
DGENRE=Blues
TTITLE0=Mink Coat Blues
TTITLE1=Burned Child Is Scared Of Fire
TTITLE2=Baby, I Ain't Gonna Let You Go
TTITLE3=Trouble Gonna Take Me To My Grave
TTITLE4=Bugle Blues
TTITLE5=Just Want To Be Your Man
TTITLE6=I'm Gonna Do It This Time
TTITLE7=She's Doggin' Me
TTITLE8=How Do You Want Your Rollin' Done
TTITLE9=I Can't Sign My Name
TTITLE10=Bottle Up And Go
TTITLE11=I'm Tired, Woman
EXTD=
EXTT0=
EXTT1=
EXTT2=
EXTT3=
EXTT4=
EXTT5=
EXTT6=
EXTT7=
EXTT8=
EXTT9=
EXTT10=
EXTT11=
PLAYORDER=
